<svg width="20" height="20" viewBox="0 0 20 20" fill="none" xmlns="http://www.w3.org/2000/svg">
<path d="M13.9 14.15H15.4C15.7 14.15 16 13.85 16 13.55V12.75M6.2 14.15H4.7C4.4 14.15 4.1 13.85 4.1 13.55V12.75M4.1 9.95C8.3 9.95 11.1 9.95 15.9 9.95M4.1 9.95H2.7C2.3 9.95 2 9.65 2 9.25C2 8.85 2.3 8.55 2.7 8.55H4.8L4.1 9.95ZM15.9 9.95H17.3C17.7 9.95 18 9.65 18 9.25C18 8.85 17.7 8.55 17.3 8.55H15.2L15.9 9.95ZM17.7 12.35L15.6 9.55L14.3 6.05C14.1 5.55 13.6 5.15 13 5.15C10.9 4.95 9 4.95 7.1 5.15C6.5 5.15 6 5.45 5.8 6.05L4.4 9.65L2.3 12.35C2.1 12.65 2 12.95 2 13.25V17.65C2 18.05 2.3 18.35 2.7 18.35H3.4C3.8 18.35 4.1 18.05 4.1 17.65V16.25H15.9V17.65C15.9 18.05 16.2 18.35 16.6 18.35H17.3C17.7 18.35 18 18.05 18 17.65V13.25C18 12.95 17.9 12.65 17.7 12.35Z" stroke="#414142" stroke-width="1.3" stroke-miterlimit="10" stroke-linecap="round" stroke-linejoin="round"/>
</svg>
