<svg width="20" height="20" viewBox="0 0 20 20" fill="none" xmlns="http://www.w3.org/2000/svg">
<path d="M3.89474 10.5906H2.85263C2.37895 10.5906 2 10.1863 2 9.68101C2 5.43624 5.50526 2 9.86316 2C14.2211 2 17.7263 5.43624 17.7263 9.68101C17.7263 10.1863 17.3474 10.5906 16.8737 10.5906H15.7368M15.7368 10.1863C15.7368 6.85116 13.0842 4.12238 9.86316 4.12238C6.6421 4.12238 3.98947 6.85116 3.98947 10.1863V16.9578C3.98947 17.4631 4.36842 17.9684 4.93684 17.9684H14.8842C15.3579 17.9684 15.8316 17.5642 15.8316 16.9578V10.1863H15.7368ZM7.6842 17.9684H11.8526V14.0268C11.8526 12.8141 11 11.9045 9.86315 11.9045H9.76841C8.63157 11.9045 7.77894 12.8141 7.77894 14.0268V17.9684H7.6842ZM8.82105 6.95223H10.7158C11.3789 6.95223 11.8526 7.45756 11.8526 8.16502V8.26609C11.8526 8.97355 11.3789 9.47888 10.7158 9.47888H8.82105C8.25262 9.47888 7.6842 8.87249 7.6842 8.26609V8.16502C7.6842 7.45756 8.25262 6.95223 8.82105 6.95223Z" stroke="#414142" stroke-width="1.3" stroke-miterlimit="10" stroke-linecap="round" stroke-linejoin="round"/>
</svg>
