<svg width="20" height="20" viewBox="0 0 20 20" fill="none" xmlns="http://www.w3.org/2000/svg">
<path d="M10 2V5.33333M10 5.33333L6.1905 9.42857M10 5.33333L13.8096 9.42857M8.47619 3.52381H11.5238M13.2381 8.85714V18M13.2381 18H6.76191M13.2381 18L17.4286 18V13M6.76191 18V8.85714M6.76191 18L2.57141 18V13M2 12.7619L6.76191 10.6667M18 12.7619L13.2381 10.6667M11.5238 18H8.47619V15.3333C8.47619 14.4762 9.14285 13.8095 10 13.8095C10.8571 13.8095 11.5238 14.4762 11.5238 15.3333V18ZM11.5238 9.80952C11.5238 10.6511 10.8416 11.3333 10 11.3333C9.15842 11.3333 8.47619 10.6511 8.47619 9.80952C8.47619 8.96795 9.15842 8.28571 10 8.28571C10.8416 8.28571 11.5238 8.96795 11.5238 9.80952Z" stroke="#414142" stroke-width="1.3" stroke-miterlimit="10" stroke-linecap="round" stroke-linejoin="round"/>
</svg>
