<svg width="20" height="20" viewBox="0 0 20 20" fill="none" xmlns="http://www.w3.org/2000/svg">
<path d="M13.7818 15.7182C16.3182 15.7182 16.6455 14.9818 16.6455 14.9818C16.6455 14.0818 16.4 11.8727 13.7818 11.3818C11.1636 10.8909 9.11819 8.76364 9.11819 5H3.39092C3.39092 5 3.39092 8.35455 3.39092 9.66364C3.39092 10.9727 1.67274 12.1182 2.73638 14.2455M13.7818 15.7182C13.2091 15.7182 12.4727 15.7182 11.6546 15.7182C8.79092 15.7182 10.0182 14.2455 7.31819 14.2455M13.7818 15.7182L13.7818 17.8455M7.31819 14.2455V15.6364H2.73638V14.2455M7.31819 14.2455C7.31819 12.1182 5.43635 10.9727 3.30907 11.0545M2.73638 14.2455L7.07274 14.2455M2 17.8455C5.27273 17.8455 12.8 17.8455 14.8455 17.8455C16.2364 17.8455 17.3 17.1091 17.7091 16.4545L16.3182 15.2273M12.3091 15.7182V17.8455M5.60002 15.7182V17.8455M4.12725 15.7182V17.8455M9.28182 6.96364L7.72727 7.53637M9.85454 8.51818L8.38181 9.25455M9.44544 10.7273L10.6727 9.66363M10.9182 11.7909L11.4909 10.4818M3.39092 6.39091H6.66365" stroke="#414142" stroke-width="1.3" stroke-miterlimit="10" stroke-linecap="round" stroke-linejoin="round"/>
</svg>
