<svg width="20" height="20" viewBox="0 0 20 20" fill="none" xmlns="http://www.w3.org/2000/svg">
<path d="M15.8 7.9C15.8 11.4 11.8 16 10.4 17.5C10.1 17.8 9.7 17.8 9.4 17.5C8 16 4 11.4 4 7.9C4 4.7 6.7 2 9.9 2C13.1 2 15.8 4.6 15.8 7.9Z" stroke="#414142" stroke-width="1.3" stroke-miterlimit="10" stroke-linecap="round" stroke-linejoin="round"/>
<path d="M9.8 10.8C11.3464 10.8 12.6 9.5464 12.6 8C12.6 6.4536 11.3464 5.2 9.8 5.2C8.2536 5.2 7 6.4536 7 8C7 9.5464 8.2536 10.8 9.8 10.8Z" stroke="#414142" stroke-width="1.3" stroke-miterlimit="10" stroke-linecap="round" stroke-linejoin="round"/>
</svg>
