<svg width="20" height="20" viewBox="0 0 20 20" fill="none" xmlns="http://www.w3.org/2000/svg">
<path d="M18.3 17.3764L17.9082 17.8951C18.105 18.0437 18.369 18.0682 18.5897 17.9583C18.8104 17.8483 18.95 17.623 18.95 17.3764H18.3ZM14.6778 14.6407L14.0314 14.572C14.0073 14.7989 14.1039 15.0219 14.286 15.1594L14.6778 14.6407ZM15.2497 9.2637L15.8961 9.33245C15.9082 9.21801 15.8898 9.10239 15.8427 8.9974L15.2497 9.2637ZM13.3433 5.01868L13.9362 4.75239C13.8694 4.60355 13.749 4.48529 13.599 4.4211L13.3433 5.01868ZM9.81637 3.50934L9.42898 2.9874C9.2421 3.1261 9.14364 3.35413 9.17082 3.58526C9.19801 3.81639 9.34668 4.01536 9.56064 4.10692L9.81637 3.50934ZM11.7228 2.09433L11.7135 1.4444C11.5772 1.44636 11.4449 1.49113 11.3354 1.57239L11.7228 2.09433ZM18.3 2H18.95C18.95 1.82599 18.8802 1.65925 18.7563 1.5371C18.6324 1.41494 18.4647 1.34757 18.2907 1.35007L18.3 2ZM12.962 13.6134C12.603 13.6134 12.312 13.9044 12.312 14.2634C12.312 14.6224 12.603 14.9134 12.962 14.9134V13.6134ZM14.4871 14.9134C14.8461 14.9134 15.1371 14.6224 15.1371 14.2634C15.1371 13.9044 14.8461 13.6134 14.4871 13.6134V14.9134ZM13.5339 10.689C13.1749 10.689 12.8839 10.9801 12.8839 11.339C12.8839 11.698 13.1749 11.989 13.5339 11.989V10.689ZM14.4871 11.989C14.8461 11.989 15.1371 11.698 15.1371 11.339C15.1371 10.9801 14.8461 10.689 14.4871 10.689V11.989ZM13.5339 8.3307C13.1749 8.3307 12.8839 8.62171 12.8839 8.9807C12.8839 9.33968 13.1749 9.6307 13.5339 9.6307V8.3307ZM14.4871 9.6307C14.8461 9.6307 15.1371 9.33968 15.1371 8.9807C15.1371 8.62171 14.8461 8.3307 14.4871 8.3307V9.6307ZM12.5807 6.06669C12.2217 6.06669 11.9307 6.3577 11.9307 6.71669C11.9307 7.07567 12.2217 7.36669 12.5807 7.36669V6.06669ZM13.6292 7.36669C13.9882 7.36669 14.2792 7.07567 14.2792 6.71669C14.2792 6.3577 13.9882 6.06669 13.6292 6.06669V7.36669ZM17.9164 17.959C18.2381 18.1182 18.628 17.9864 18.7872 17.6647C18.9464 17.3429 18.8147 16.953 18.4929 16.7938L17.9164 17.959ZM2.0798 17.2973C1.72353 17.2532 1.39899 17.5063 1.35492 17.8626C1.31084 18.2189 1.56393 18.5434 1.9202 18.5875L2.0798 17.2973ZM9.57099 13.1321L8.92136 13.154L9.57099 13.1321ZM8.09918 8.50314L7.59407 8.91224L8.09918 8.50314ZM4.94531 13.1321L5.59485 13.1565L4.94531 13.1321ZM4.94531 13.7358L5.59531 13.7358L4.94531 13.7358ZM6.71323 17.4591C6.71323 17.8181 7.00425 18.1091 7.36323 18.1091C7.72222 18.1091 8.01323 17.8181 8.01323 17.4591H6.71323ZM8.01323 12.1258C8.01323 11.7668 7.72222 11.4758 7.36323 11.4758C7.00425 11.4758 6.71323 11.7668 6.71323 12.1258H8.01323ZM2.92845 17.0566C2.92845 17.4156 3.21947 17.7066 3.57845 17.7066C3.93744 17.7066 4.22845 17.4156 4.22845 17.0566H2.92845ZM4.22845 15.9497C4.22845 15.5907 3.93744 15.2997 3.57845 15.2997C3.21947 15.2997 2.92845 15.5907 2.92845 15.9497H4.22845ZM4.35167 12.765C4.49802 13.0928 4.8824 13.2399 5.2102 13.0935C5.53799 12.9472 5.68508 12.5628 5.53872 12.235L4.35167 12.765ZM3.99903 10.5157L4.44849 10.0462L3.99903 10.5157ZM3.158 10.5157L2.70854 10.0462L3.158 10.5157ZM2.00158 14L1.35181 13.9826L2.00158 14ZM5.49594 15.3892C5.6866 15.0851 5.59459 14.6839 5.29042 14.4933C4.98625 14.3026 4.58511 14.3946 4.39445 14.6988L5.49594 15.3892ZM18.6917 16.8577L15.0695 14.122L14.286 15.1594L17.9082 17.8951L18.6917 16.8577ZM15.3241 14.7095L15.8961 9.33245L14.6033 9.19495L14.0314 14.572L15.3241 14.7095ZM15.8427 8.9974L13.9362 4.75239L12.7503 5.28497L14.6568 9.52999L15.8427 8.9974ZM13.599 4.4211L10.0721 2.91176L9.56064 4.10692L13.0875 5.61626L13.599 4.4211ZM10.2038 4.03128L12.1102 2.61627L11.3354 1.57239L9.42898 2.9874L10.2038 4.03128ZM11.7321 2.74427L18.3093 2.64993L18.2907 1.35007L11.7135 1.4444L11.7321 2.74427ZM17.65 2V17.3764H18.95V2H17.65ZM12.962 14.9134H14.4871V13.6134H12.962V14.9134ZM13.5339 11.989H14.4871V10.689H13.5339V11.989ZM13.5339 9.6307H14.4871V8.3307H13.5339V9.6307ZM12.5807 7.36669H13.6292V6.06669H12.5807V7.36669ZM18.4929 16.7938C18.3869 16.7414 18.27 16.716 18.2112 16.7037C18.1322 16.6872 18.0404 16.6722 17.9425 16.6583C17.7457 16.6302 17.4931 16.6022 17.2065 16.5746C16.6317 16.5192 15.892 16.4627 15.128 16.4096C13.5496 16.2998 11.9991 16.212 11.292 16.162L11.2004 17.4588C11.8277 17.5031 13.5658 17.604 15.0378 17.7065C15.7989 17.7594 16.5247 17.815 17.0819 17.8686C17.3613 17.8956 17.5912 17.9214 17.7593 17.9453C17.8439 17.9573 17.9051 17.9678 17.9455 17.9763C18.006 17.9889 17.9747 17.9879 17.9164 17.959L18.4929 16.7938ZM11.292 16.162C10.8585 16.1314 10.2178 16.2344 9.5462 16.3619C8.87777 16.4888 7.98044 16.682 7.14277 16.8444C5.37137 17.1879 3.48912 17.4717 2.0798 17.2973L1.9202 18.5875C3.56117 18.7905 5.63476 18.4611 7.39025 18.1206C8.31603 17.9411 9.07492 17.7746 9.78864 17.6391C10.4992 17.5043 10.9666 17.4423 11.2004 17.4588L11.292 16.162ZM10.2206 13.1102C10.1856 12.0688 9.89547 10.9647 9.57346 10.0724C9.25897 9.20088 8.87738 8.43123 8.60429 8.09405L7.59407 8.91224C7.72339 9.07192 8.04578 9.66882 8.35064 10.5136C8.64797 11.3376 8.89258 12.2995 8.92136 13.154L10.2206 13.1102ZM8.60429 8.09405C8.42461 7.87219 8.03601 7.35 7.36328 7.35V8.65C7.35921 8.65 7.35085 8.64869 7.34403 8.64603C7.33933 8.6442 7.34611 8.64582 7.36599 8.66141C7.38691 8.67784 7.41585 8.70458 7.45599 8.74856C7.49656 8.79302 7.53978 8.84522 7.59407 8.91224L8.60429 8.09405ZM7.36328 7.35C6.69795 7.35 6.32413 7.8217 6.10581 8.11523L7.14893 8.89105C7.25352 8.75043 7.31323 8.68811 7.35252 8.65832C7.36743 8.64701 7.37164 8.64663 7.36686 8.64835C7.36092 8.6505 7.35777 8.65 7.36328 8.65V7.35ZM6.10581 8.11523C5.95404 8.3193 5.52857 9.04601 5.13498 9.94805C4.74084 10.8514 4.33645 12.024 4.29577 13.1077L5.59485 13.1565C5.62632 12.3182 5.95275 11.3245 6.3265 10.4679C6.50993 10.0475 6.6979 9.67555 6.85233 9.39243C6.9295 9.25096 6.99739 9.13335 7.05111 9.04444C7.07798 8.99996 7.10056 8.9639 7.11837 8.93643C7.12725 8.92273 7.13446 8.91191 7.14004 8.90376C7.14279 8.89972 7.14496 8.89662 7.14656 8.89436C7.14819 8.89206 7.14895 8.89103 7.14893 8.89105L6.10581 8.11523ZM4.29577 13.1077C4.28641 13.3569 4.2953 13.6235 4.29531 13.7359L5.59531 13.7358C5.5953 13.5484 5.58651 13.3785 5.59485 13.1565L4.29577 13.1077ZM4.29531 13.7359C4.29535 15.3857 5.70898 16.4991 7.25815 16.4991V15.1991C6.28422 15.1991 5.59533 14.5329 5.59531 13.7358L4.29531 13.7359ZM7.25815 16.4991C8.8316 16.4991 10.221 15.2471 10.221 13.7358H8.92099C8.92099 14.4384 8.2078 15.1991 7.25815 15.1991V16.4991ZM10.221 13.7358C10.221 13.5363 10.2289 13.3574 10.2206 13.1102L8.92136 13.154C8.9289 13.378 8.92099 13.4637 8.92099 13.7358H10.221ZM8.01323 17.4591V12.1258H6.71323V17.4591H8.01323ZM4.22845 17.0566V15.9497H2.92845V17.0566H4.22845ZM4.94519 12.5C5.53872 12.235 5.53871 12.235 5.5387 12.235C5.5387 12.2349 5.53868 12.2349 5.53867 12.2349C5.53864 12.2348 5.53859 12.2347 5.53854 12.2346C5.53843 12.2343 5.53826 12.234 5.53805 12.2335C5.53763 12.2326 5.53701 12.2312 5.53619 12.2293C5.53456 12.2257 5.53215 12.2203 5.52901 12.2133C5.52274 12.1993 5.51357 12.1788 5.50187 12.1527C5.47848 12.1006 5.44499 12.0261 5.4045 11.9365C5.32356 11.7574 5.21433 11.517 5.10159 11.273C4.98926 11.0298 4.87175 10.7795 4.77471 10.5818C4.72655 10.4837 4.68071 10.393 4.64164 10.3207C4.6224 10.2851 4.60129 10.2475 4.58001 10.213C4.57172 10.1996 4.52312 10.1176 4.44849 10.0462L3.54957 10.9853C3.48809 10.9264 3.45837 10.8709 3.47396 10.8961C3.47654 10.9003 3.48429 10.9135 3.49811 10.939C3.52514 10.989 3.56226 11.062 3.60773 11.1546C3.69796 11.3384 3.81041 11.5779 3.92148 11.8182C4.03214 12.0577 4.13974 12.2945 4.21978 12.4717C4.25977 12.5602 4.29281 12.6337 4.31583 12.685C4.32733 12.7106 4.33633 12.7307 4.34243 12.7444C4.34548 12.7512 4.34781 12.7564 4.34937 12.7599C4.35014 12.7616 4.35073 12.7629 4.35111 12.7638C4.35131 12.7642 4.35145 12.7645 4.35154 12.7647C4.35159 12.7648 4.35162 12.7649 4.35164 12.7649C4.35165 12.765 4.35166 12.765 4.35166 12.765C4.35167 12.765 4.35167 12.765 4.94519 12.5ZM4.44849 10.0462C4.33256 9.93519 4.06353 9.66446 3.57851 9.66446V10.9645C3.57879 10.9645 3.57602 10.9645 3.57071 10.9638C3.56533 10.9631 3.55823 10.9618 3.54987 10.9596C3.54149 10.9574 3.53303 10.9545 3.52483 10.951C3.51667 10.9476 3.50982 10.9441 3.50448 10.941C3.49408 10.935 3.49141 10.9319 3.49913 10.9384C3.50305 10.9417 3.50874 10.9467 3.51732 10.9547C3.52633 10.9631 3.53582 10.9721 3.54957 10.9853L4.44849 10.0462ZM3.57851 9.66446C3.09349 9.66446 2.82447 9.93519 2.70854 10.0462L3.60746 10.9853C3.62121 10.9721 3.6307 10.9631 3.63971 10.9547C3.64829 10.9467 3.65398 10.9417 3.65789 10.9384C3.66562 10.9319 3.66294 10.935 3.65255 10.941C3.64721 10.9441 3.64036 10.9476 3.6322 10.951C3.624 10.9545 3.61554 10.9574 3.60716 10.9596C3.5988 10.9618 3.5917 10.9631 3.58632 10.9638C3.58101 10.9645 3.57824 10.9645 3.57851 10.9645V9.66446ZM2.70854 10.0462C2.64127 10.1105 2.59457 10.184 2.58431 10.1996C2.56183 10.234 2.53873 10.2724 2.51628 10.3114C2.47081 10.3905 2.41665 10.4917 2.35766 10.609C2.23932 10.8443 2.09391 11.1594 1.95108 11.5172C1.67223 12.2158 1.37416 13.1484 1.35181 13.9826L2.65135 14.0174C2.66739 13.4184 2.89497 12.6592 3.15845 11.9991C3.28678 11.6776 3.4167 11.3966 3.51905 11.1931C3.57041 11.091 3.61293 11.0122 3.64312 10.9597C3.6585 10.9329 3.66798 10.9177 3.6719 10.9118C3.68805 10.8871 3.66158 10.9335 3.60746 10.9853L2.70854 10.0462ZM1.35181 13.9826C1.348 14.1247 1.35158 14.2664 1.35158 14.3396H2.65158C2.65158 14.2115 2.64805 14.1404 2.65135 14.0174L1.35181 13.9826ZM1.35158 14.3396C1.35158 15.5301 2.40559 16.4991 3.57851 16.4991V15.1991C3.06937 15.1991 2.65158 14.7592 2.65158 14.3396H1.35158ZM3.57851 16.4991C4.0039 16.4991 4.38726 16.3954 4.72238 16.1878C5.05198 15.9837 5.30104 15.7002 5.49594 15.3892L4.39445 14.6988C4.27396 14.891 4.15507 15.01 4.03787 15.0826C3.92618 15.1518 3.78391 15.1991 3.57851 15.1991V16.4991Z" fill="#414142"/>
</svg>
