<svg width="20" height="20" viewBox="0 0 20 20" fill="none" xmlns="http://www.w3.org/2000/svg">
<path d="M15.7829 12.3314L11.1543 10.9943M15.7829 12.2286L13.3143 8.11429L11.36 10.6857M5.70286 9.86286L9.40572 5.44L7.24572 4.82286L7.76 4M2 11.7143L4.57143 12.64L7.34857 14.9029L10.8457 14.3886L15.0629 14.9029L18.56 17.7829M14.4457 7.80571L12.5943 7.29143M11.1543 10.8914L8.68571 6.46857M9.40576 16.7543L11.7715 16.5486M2.92578 14.5943L3.95435 15.3143M18.2514 12.4343C18.2514 13.8544 17.1002 15.0057 15.68 15.0057C14.2598 15.0057 13.1086 13.8544 13.1086 12.4343C13.1086 11.0141 14.2598 9.86286 15.68 9.86286C17.1002 9.86286 18.2514 11.0141 18.2514 12.4343ZM8.37714 9.86286C8.37714 11.283 7.22587 12.4343 5.80571 12.4343C4.38555 12.4343 3.23428 11.283 3.23428 9.86286C3.23428 8.4427 4.38555 7.29143 5.80571 7.29143C7.22587 7.29143 8.37714 8.4427 8.37714 9.86286Z" stroke="#414142" stroke-width="1.3" stroke-miterlimit="10" stroke-linecap="round" stroke-linejoin="round"/>
</svg>
