<svg width="20" height="20" viewBox="0 0 20 20" fill="none" xmlns="http://www.w3.org/2000/svg">
<path d="M5.19082 9.06977H2M5.19082 9.06977C5.19082 9.06977 5.19082 12.6977 5.29053 12.6977C5.29053 12.5116 14.7633 12.6977 14.7633 12.6977V9.06977M5.19082 9.06977L5.19079 7.48837M2 9.06977V18H17.9541V9.06977M2 9.06977V7.48837M17.9541 9.06977H14.7633M17.9541 9.06977V7.48837M14.7633 9.06977L14.7633 7.48837M9.97701 3.76744L12.9684 7.2093H10.4756C10.3759 7.2093 6.68648 7.2093 6.68648 7.2093L9.97701 3.76744ZM9.97701 3.76744L9.97706 2H11.6722V2.93023H13.5667M16.3588 7.48837V8.79069M3.59551 7.48837V8.79069M9.97706 8.97675V9.90698M3.59551 11.7674V12.6977M5.19079 11.7674V17.814M14.7633 11.7674V17.814M16.3588 11.7674V12.6977M8.18231 17.814V16.3256C8.18231 16.3256 8.0826 14.4651 9.97715 14.4651C11.8717 14.4651 11.772 16.3256 11.772 16.3256V17.5349M7.8832 7.30232H11.8717V12.3256H7.8832V7.30232Z" stroke="#414142" stroke-width="1.3" stroke-miterlimit="10" stroke-linecap="round" stroke-linejoin="round"/>
</svg>
