<svg width="20" height="20" viewBox="0 0 20 20" fill="none" xmlns="http://www.w3.org/2000/svg">
<path d="M11.0975 9.45682C10.7698 9.31041 10.3854 9.45743 10.2389 9.7852C10.0925 10.113 10.2395 10.4974 10.5673 10.6438L11.0975 9.45682ZM12.4094 10.7547L12.1443 11.3482L12.1773 11.3629L12.2118 11.3739L12.4094 10.7547ZM12.3042 12.2641L12.4168 12.9043L12.46 12.8967L12.5018 12.8834L12.3042 12.2641ZM1.88903 13.4353C1.53546 13.4974 1.29924 13.8344 1.3614 14.188C1.42356 14.5416 1.76057 14.7778 2.11413 14.7156L1.88903 13.4353ZM11.0944 9.35666C10.7391 9.3054 10.4095 9.55187 10.3582 9.90718C10.307 10.2625 10.5535 10.5921 10.9088 10.6433L11.0944 9.35666ZM16.9299 10.8554L17.1624 10.2483L17.0946 10.2224L17.0228 10.212L16.9299 10.8554ZM17.3505 13.2705L17.6949 13.8217L17.7126 13.8106L17.7295 13.7985L17.3505 13.2705ZM9.43672 17.4488C9.13228 17.639 9.03969 18.04 9.22992 18.3444C9.42014 18.6489 9.82115 18.7415 10.1256 18.5512L9.43672 17.4488ZM9.57099 7.13208L8.92136 7.15395L9.57099 7.13208ZM8.09918 2.50314L7.59407 2.91224L8.09918 2.50314ZM4.94531 7.13208L5.59485 7.15646L4.94531 7.13208ZM4.94531 7.73585L5.59531 7.73583L4.94531 7.73585ZM6.71323 11.4591C6.71323 11.8181 7.00425 12.1091 7.36323 12.1091C7.72222 12.1091 8.01323 11.8181 8.01323 11.4591H6.71323ZM8.01323 6.12579C8.01323 5.7668 7.72222 5.47579 7.36323 5.47579C7.00425 5.47579 6.71323 5.7668 6.71323 6.12579H8.01323ZM2.92845 11.0566C2.92845 11.4156 3.21947 11.7066 3.57845 11.7066C3.93744 11.7066 4.22845 11.4156 4.22845 11.0566H2.92845ZM4.22845 9.9497C4.22845 9.59071 3.93744 9.2997 3.57845 9.2997C3.21947 9.2997 2.92845 9.59071 2.92845 9.9497H4.22845ZM4.35167 6.765C4.49802 7.0928 4.8824 7.23988 5.2102 7.09353C5.53799 6.94717 5.68508 6.56279 5.53872 6.235L4.35167 6.765ZM3.99903 4.51572L4.44849 4.04616L3.99903 4.51572ZM3.158 4.51572L2.70854 4.04616L3.158 4.51572ZM2.00158 8L1.35181 7.98259L2.00158 8ZM5.49594 9.38925C5.6866 9.08508 5.59459 8.68394 5.29042 8.49328C4.98625 8.30261 4.58511 8.39463 4.39445 8.6988L5.49594 9.38925ZM7.86668 17.2989C8.20194 17.4272 8.57777 17.2595 8.70613 16.9243C8.83449 16.589 8.66677 16.2132 8.33152 16.0848L7.86668 17.2989ZM7.04781 15.6855L7.62394 15.3846C7.51494 15.1759 7.30161 15.0425 7.06628 15.0358C6.83094 15.0291 6.61038 15.1502 6.4897 15.3524L7.04781 15.6855ZM4.73497 15.5849L5.31923 15.3001C5.23531 15.1279 5.07974 15.0016 4.89406 14.9547C4.70838 14.9078 4.51147 14.9452 4.3559 15.0569L4.73497 15.5849ZM3.26316 16.1425C2.90418 16.1425 2.61316 16.4335 2.61316 16.7925C2.61316 17.1514 2.90418 17.4425 3.26316 17.4425V16.1425ZM11.9546 15.4285C12.2572 15.6216 12.6591 15.5328 12.8522 15.2302C13.0453 14.9276 12.9566 14.5257 12.6539 14.3326L11.9546 15.4285ZM11.4632 13.9749L12.0394 13.6739C11.924 13.4531 11.6926 13.3176 11.4436 13.3251C11.1946 13.3327 10.9718 13.4819 10.87 13.7092L11.4632 13.9749ZM10.3898 14.2735C10.0545 14.4018 9.88682 14.7777 10.0152 15.1129C10.1435 15.4482 10.5194 15.6159 10.8546 15.4875L10.3898 14.2735ZM10.5673 10.6438L12.1443 11.3482L12.6745 10.1612L11.0975 9.45682L10.5673 10.6438ZM12.2118 11.3739C12.2253 11.3783 12.2369 11.3855 12.2492 11.4039C12.2626 11.424 12.285 11.4719 12.285 11.5597H13.585C13.585 10.9233 13.2357 10.3361 12.6069 10.1355L12.2118 11.3739ZM12.285 11.5597C12.285 11.5214 12.2949 11.5015 12.2941 11.5032C12.2931 11.5053 12.2853 11.5199 12.2643 11.5422C12.2439 11.5639 12.217 11.5865 12.1862 11.6061C12.1552 11.6259 12.1271 11.6384 12.1067 11.6449L12.5018 12.8834C12.7694 12.798 13.0209 12.6354 13.2114 12.4327C13.3961 12.2362 13.585 11.9338 13.585 11.5597H12.285ZM12.1917 11.624L1.88903 13.4353L2.11413 14.7156L12.4168 12.9043L12.1917 11.624ZM10.9088 10.6433L16.8371 11.4987L17.0228 10.212L11.0944 9.35666L10.9088 10.6433ZM16.6975 11.4624C17.0824 11.6098 17.2978 11.8694 17.345 12.0952L18.6175 11.8293C18.4544 11.0488 17.8287 10.5035 17.1624 10.2483L16.6975 11.4624ZM17.345 12.0952C17.3762 12.2446 17.2832 12.5186 16.9714 12.7424L17.7295 13.7985C18.2587 13.4186 18.7965 12.6862 18.6175 11.8293L17.345 12.0952ZM17.006 12.7192L9.43672 17.4488L10.1256 18.5512L17.6949 13.8217L17.006 12.7192ZM10.2206 7.1102C10.1856 6.06885 9.89547 4.96471 9.57346 4.07237C9.25897 3.20088 8.87738 2.43123 8.60429 2.09405L7.59407 2.91224C7.72339 3.07192 8.04578 3.66882 8.35064 4.51363C8.64797 5.33759 8.89258 6.29949 8.92136 7.15395L10.2206 7.1102ZM8.60429 2.09405C8.42461 1.87219 8.03601 1.35 7.36328 1.35V2.65C7.35921 2.65 7.35085 2.64869 7.34403 2.64603C7.33933 2.6442 7.34611 2.64582 7.36599 2.66141C7.38691 2.67784 7.41585 2.70458 7.45599 2.74856C7.49656 2.79302 7.53978 2.84522 7.59407 2.91224L8.60429 2.09405ZM7.36328 1.35C6.69795 1.35 6.32413 1.8217 6.10581 2.11523L7.14893 2.89105C7.25352 2.75043 7.31323 2.68811 7.35252 2.65832C7.36743 2.64701 7.37164 2.64663 7.36686 2.64835C7.36092 2.6505 7.35777 2.65 7.36328 2.65V1.35ZM6.10581 2.11523C5.95404 2.3193 5.52857 3.04601 5.13498 3.94805C4.74084 4.85136 4.33645 6.02397 4.29577 7.10769L5.59485 7.15646C5.62632 6.31817 5.95275 5.32451 6.3265 4.46795C6.50993 4.04755 6.6979 3.67555 6.85233 3.39243C6.9295 3.25096 6.99739 3.13335 7.05111 3.04444C7.07798 2.99996 7.10056 2.9639 7.11837 2.93643C7.12725 2.92273 7.13446 2.91191 7.14004 2.90376C7.14279 2.89972 7.14496 2.89662 7.14656 2.89436C7.14819 2.89206 7.14895 2.89103 7.14893 2.89105L6.10581 2.11523ZM4.29577 7.10769C4.28641 7.35692 4.2953 7.62348 4.29531 7.73587L5.59531 7.73583C5.5953 7.54839 5.58651 7.37848 5.59485 7.15646L4.29577 7.10769ZM4.29531 7.73587C4.29535 9.38573 5.70898 10.4991 7.25815 10.4991V9.19906C6.28422 9.19906 5.59533 8.53289 5.59531 7.73583L4.29531 7.73587ZM7.25815 10.4991C8.8316 10.4991 10.221 9.24709 10.221 7.73585H8.92099C8.92099 8.43844 8.2078 9.19906 7.25815 9.19906V10.4991ZM10.221 7.73585C10.221 7.53627 10.2289 7.35744 10.2206 7.1102L8.92136 7.15395C8.9289 7.37802 8.92099 7.46373 8.92099 7.73585H10.221ZM8.01323 11.4591V6.12579H6.71323V11.4591H8.01323ZM4.22845 11.0566V9.9497H2.92845V11.0566H4.22845ZM4.94519 6.5C5.53872 6.235 5.53871 6.23498 5.5387 6.23496C5.5387 6.23494 5.53868 6.23491 5.53867 6.23488C5.53864 6.23481 5.53859 6.23472 5.53854 6.23459C5.53843 6.23434 5.53826 6.23398 5.53805 6.23351C5.53763 6.23256 5.53701 6.23116 5.53619 6.22933C5.53456 6.22568 5.53215 6.22029 5.52901 6.21329C5.52274 6.19928 5.51357 6.1788 5.50187 6.15274C5.47848 6.10062 5.44499 6.02614 5.4045 5.9365C5.32356 5.75735 5.21433 5.51695 5.10159 5.27296C4.98926 5.02985 4.87175 4.77947 4.77471 4.5818C4.72655 4.48368 4.68071 4.39298 4.64163 4.3207C4.6224 4.28513 4.60129 4.24749 4.58001 4.21303C4.57172 4.19961 4.52312 4.11759 4.44849 4.04616L3.54957 4.98528C3.48809 4.92643 3.45837 4.87092 3.47396 4.89614C3.47654 4.90033 3.48429 4.91348 3.49811 4.93904C3.52514 4.98904 3.56226 5.062 3.60773 5.15464C3.69796 5.33845 3.81041 5.57785 3.92148 5.81823C4.03214 6.05773 4.13974 6.29453 4.21978 6.47172C4.25977 6.56023 4.29281 6.63371 4.31583 6.68499C4.32733 6.71063 4.33633 6.73072 4.34243 6.74435C4.34548 6.75117 4.34781 6.75637 4.34937 6.75985C4.35014 6.76159 4.35073 6.7629 4.35111 6.76376C4.35131 6.76419 4.35145 6.76452 4.35154 6.76472C4.35159 6.76483 4.35162 6.7649 4.35164 6.76495C4.35165 6.76497 4.35166 6.76499 4.35166 6.765C4.35167 6.765 4.35167 6.765 4.94519 6.5ZM4.44849 4.04616C4.33256 3.93519 4.06354 3.66446 3.57851 3.66446V4.96446C3.57879 4.96446 3.57602 4.96447 3.57071 4.9638C3.56533 4.96311 3.55823 4.96184 3.54987 4.9596C3.54149 4.95735 3.53303 4.95445 3.52483 4.95101C3.51667 4.94759 3.50982 4.94407 3.50448 4.94101C3.49408 4.93504 3.49141 4.93188 3.49913 4.9384C3.50305 4.94171 3.50873 4.94673 3.51732 4.95469C3.52633 4.96305 3.53582 4.97212 3.54957 4.98528L4.44849 4.04616ZM3.57851 3.66446C3.09349 3.66446 2.82447 3.93519 2.70854 4.04616L3.60746 4.98528C3.62121 4.97212 3.6307 4.96305 3.63971 4.95469C3.64829 4.94673 3.65398 4.94171 3.65789 4.93841C3.66562 4.93188 3.66294 4.93504 3.65255 4.94101C3.64721 4.94407 3.64036 4.94759 3.6322 4.95101C3.624 4.95445 3.61554 4.95735 3.60716 4.9596C3.5988 4.96184 3.5917 4.96311 3.58632 4.9638C3.58101 4.96447 3.57824 4.96446 3.57851 4.96446V3.66446ZM2.70854 4.04616C2.64127 4.11055 2.59457 4.18396 2.58431 4.19961C2.56183 4.23395 2.53873 4.27239 2.51628 4.31142C2.47081 4.39046 2.41665 4.49171 2.35766 4.60901C2.23932 4.8443 2.09391 5.15936 1.95108 5.51719C1.67223 6.21579 1.37416 7.14839 1.35181 7.98259L2.65135 8.01741C2.66739 7.41844 2.89497 6.65922 3.15845 5.99912C3.28678 5.67761 3.4167 5.39661 3.51905 5.1931C3.57041 5.09099 3.61293 5.01215 3.64312 4.95967C3.6585 4.93293 3.66798 4.91775 3.6719 4.91176C3.68805 4.88709 3.66158 4.93347 3.60746 4.98528L2.70854 4.04616ZM1.35181 7.98259C1.348 8.12473 1.35158 8.26643 1.35158 8.33962H2.65158C2.65158 8.21154 2.64805 8.14043 2.65135 8.01741L1.35181 7.98259ZM1.35158 8.33962C1.35158 9.53014 2.40559 10.4991 3.57851 10.4991V9.19905C3.06937 9.19905 2.65158 8.75916 2.65158 8.33962H1.35158ZM3.57851 10.4991C4.0039 10.4991 4.38726 10.3954 4.72238 10.1878C5.05198 9.98367 5.30104 9.70017 5.49594 9.38925L4.39445 8.6988C4.27396 8.89102 4.15507 9.01003 4.03787 9.08262C3.92618 9.15179 3.78391 9.19905 3.57851 9.19905V10.4991ZM8.33152 16.0848C8.011 15.9621 7.79512 15.7123 7.62394 15.3846L6.47168 15.9865C6.72101 16.4638 7.13592 17.0191 7.86668 17.2989L8.33152 16.0848ZM6.4897 15.3524C6.29632 15.6763 6.13325 15.8765 6.00622 15.988C5.88109 16.0979 5.84204 16.0789 5.87341 16.0799C5.90654 16.081 5.86834 16.099 5.75379 15.9816C5.63647 15.8614 5.48847 15.6472 5.31923 15.3001L4.15071 15.8698C4.34942 16.2774 4.56937 16.6292 4.82329 16.8895C5.07997 17.1526 5.4163 17.3655 5.83052 17.3792C6.24298 17.3928 6.59159 17.204 6.86399 16.9649C7.13448 16.7273 7.37878 16.3992 7.60592 16.0187L6.4897 15.3524ZM4.3559 15.0569C4.19099 15.1753 4.03998 15.3333 3.92214 15.462C3.78081 15.6163 3.69199 15.7222 3.56611 15.8554C3.45069 15.9775 3.35959 16.0608 3.28637 16.1114C3.2097 16.1643 3.20829 16.1425 3.26316 16.1425V17.4425C3.58086 17.4425 3.84227 17.3074 4.02513 17.1811C4.21145 17.0524 4.37661 16.8904 4.51086 16.7484C4.63467 16.6174 4.78896 16.4403 4.88088 16.3399C4.9963 16.2139 5.06869 16.1455 5.11404 16.1129L4.3559 15.0569ZM12.6539 14.3326C12.4173 14.1816 12.1884 13.9592 12.0394 13.6739L10.8871 14.2758C11.1586 14.7956 11.5605 15.177 11.9546 15.4285L12.6539 14.3326ZM10.87 13.7092C10.7595 13.956 10.618 14.1036 10.5154 14.1867C10.4632 14.2289 10.4203 14.2552 10.3955 14.2688C10.3832 14.2756 10.3758 14.2791 10.3743 14.2797C10.3736 14.2801 10.3744 14.2797 10.3769 14.2786C10.3782 14.2781 10.3799 14.2774 10.382 14.2765C10.3831 14.2761 10.3843 14.2756 10.3856 14.2751C10.3862 14.2749 10.3869 14.2746 10.3876 14.2743C10.3879 14.2742 10.3883 14.2741 10.3887 14.2739C10.3889 14.2738 10.3891 14.2737 10.3892 14.2737C10.3895 14.2736 10.3898 14.2735 10.6222 14.8805C10.8546 15.4875 10.8549 15.4874 10.8552 15.4873C10.8553 15.4873 10.8556 15.4872 10.8558 15.4871C10.8562 15.4869 10.8566 15.4868 10.857 15.4866C10.8579 15.4863 10.8587 15.486 10.8596 15.4856C10.8614 15.4849 10.8634 15.4841 10.8655 15.4833C10.8696 15.4816 10.8743 15.4797 10.8795 15.4775C10.8898 15.4732 10.9023 15.4678 10.9165 15.4612C10.945 15.4482 10.9811 15.4304 11.023 15.4073C11.1067 15.3612 11.2149 15.2931 11.3336 15.1969C11.5726 15.0033 11.8516 14.6981 12.0565 14.2405L10.87 13.7092Z" fill="#414142"/>
</svg>
