<svg width="20" height="20" viewBox="0 0 20 20" fill="none" xmlns="http://www.w3.org/2000/svg">
<path d="M7.61229 2.92903L10.6131 2L13.7078 3.54839L14.458 6.54193L15.9584 9.2258L16.3335 12.7355C16.3335 12.7355 16.9899 13.9742 17.5526 15.2129C18.1152 16.4516 18.3028 18 17.1775 18C16.0522 18 4.799 18 2.73592 18C1.42306 18 2.26704 13.871 2.26704 13.871L4.4239 11.2903C4.4239 11.2903 3.76746 8.91612 4.04879 7.57419C4.33012 6.23225 5.92432 5.81935 5.92432 5.81935L7.61229 2.92903ZM7.61229 2.92903L8.4562 4.27094L9.58152 4.99352M15.3956 9.43227L13.8951 9.53549L13.0511 9.12259M2.54868 14.0774L3.95532 14.9032L5.92462 14.2838M8.1749 18V12.9419C8.1749 11.4968 9.30021 10.2581 10.6131 10.2581C11.9259 10.2581 13.0513 11.4968 13.0513 12.9419V18C12.3948 18 8.1749 17.8968 8.1749 18Z" stroke="#414142" stroke-width="1.3" stroke-miterlimit="10" stroke-linecap="round" stroke-linejoin="round"/>
</svg>
