<svg width="20" height="20" viewBox="0 0 20 20" fill="none" xmlns="http://www.w3.org/2000/svg">
<path d="M13.8217 4.64967V11.172M13.8217 7.29936L15.1465 6.17834M12.293 5.46495L13.8216 6.58597M14.9426 15.656C14.535 15.5541 14.2293 15.2484 14.0255 14.8407C13.3121 16.0637 11.6815 16.0637 10.9681 14.8407C10.2547 16.0637 8.62417 16.0637 7.9108 14.8407C7.60506 15.4522 6.9936 15.7579 6.38213 15.7579M17.4904 5.56688C17.4904 7.53681 15.8934 9.13376 13.9235 9.13376C11.9535 9.13376 10.3566 7.53681 10.3566 5.56688C10.3566 3.59695 11.9535 2 13.9235 2C15.8934 2 17.4904 3.59695 17.4904 5.56688ZM18.3057 15.3503C18.3057 16.8137 14.6556 18 10.1529 18C5.65016 18 2 16.8137 2 15.3503C2 13.8869 5.65016 12.7006 10.1529 12.7006C14.6556 12.7006 18.3057 13.8869 18.3057 15.3503Z" stroke="#414142" stroke-width="1.3" stroke-miterlimit="10" stroke-linecap="round" stroke-linejoin="round"/>
</svg>
