<svg width="20" height="20" viewBox="0 0 20 20" fill="none" xmlns="http://www.w3.org/2000/svg">
<path d="M11.8526 13.6155H12.8C14.4105 13.6155 16.3053 13.2114 17.1579 11.5954C17.2526 11.3934 17.3474 11.1914 17.3474 10.9894C17.3474 10.7874 17.1895 10.5 17 10.5H13.8737M13.179 9.37329L9.54968 14.6255M9.54968 14.6255L10.1181 15.9386L9.26546 17.4536C8.98125 17.9586 8.22335 18.1606 7.74967 17.8576C7.27598 17.5546 7.08651 16.9486 7.37072 16.4436L8.22335 14.9285L9.54968 14.6255ZM12.1368 13.6155H5.78947C3.89474 13.6155 3.13684 13.2114 2.18947 11.5954C2.09474 11.3934 2 11.1914 2 10.8884C2 10.6863 2.18947 10.4843 2.37895 10.4843H4.65263C5.12632 10.4843 10.6211 10.4843 10.6211 10.4843H15.2632M6.07367 10.1813L7.6842 6.54518C7.96841 5.83815 8.7263 5.53514 9.4842 5.73715C9.4842 5.73715 10.0526 5.93916 10.621 6.44418L11.0947 7.25221C11.2842 7.45422 11.4737 7.65623 11.7579 7.85824L13.1789 8.46426C13.5579 8.66627 13.7474 9.07028 13.6526 9.3733M11.6631 9.87831C11.6631 9.87831 10.0526 8.96928 9.67368 8.46426M12.3263 3.51506C12.3263 2.70703 11.7579 2 11 2C10.2421 2 9.57895 2.60602 9.57895 3.41406C9.57895 4.22209 10.1474 4.92912 10.9053 4.92912C11.6632 4.92912 12.3263 4.32309 12.3263 3.51506Z" stroke="#414142" stroke-width="1.3" stroke-miterlimit="10" stroke-linecap="round" stroke-linejoin="round"/>
</svg>
