<svg width="20" height="20" viewBox="0 0 20 20" fill="none" xmlns="http://www.w3.org/2000/svg">
<path d="M4.1 13.744L2 18V16.32M4.1 13.744L10 5.12L15.9 13.744M4.1 13.744L4.10001 18H8.30001V14.864C8.30001 13.744 9.10001 12.736 10 12.736C10.5 12.736 10.9 12.96 11.2 13.296C11.5 13.632 11.7 14.192 11.7 14.752V17.888H15.9L15.9 13.744M15.9 13.744L18 18V16.32M4.10001 15.872H8.00001M11.7 15.872H15.5M10.8 6.24L9.29998 4M9.59998 5.68L10.7 4" stroke="#414142" stroke-width="1.3" stroke-miterlimit="10" stroke-linecap="round" stroke-linejoin="round"/>
</svg>
