<svg width="20" height="20" viewBox="0 0 20 20" fill="none" xmlns="http://www.w3.org/2000/svg">
<path d="M15.2 12.1L11.7 8.7L10.4 11.7M4.6 12.4L7.1 7H4.8L5.1 6M12.7 8H10.7M10.2 11.9L6.6 8.2M2 15.7H17.8M2.9 17.7H5.8M8.8 17.7H11.7M14.6 17.7H17.5M17.8 12.3C17.8 13.7359 16.6359 14.9 15.2 14.9C13.7641 14.9 12.6 13.7359 12.6 12.3C12.6 10.8641 13.7641 9.7 15.2 9.7C16.6359 9.7 17.8 10.8641 17.8 12.3ZM7.2 12.3C7.2 13.7359 6.03594 14.9 4.6 14.9C3.16406 14.9 2 13.7359 2 12.3C2 10.8641 3.16406 9.7 4.6 9.7C6.03594 9.7 7.2 10.8641 7.2 12.3Z" stroke="#414142" stroke-width="1.4173" stroke-miterlimit="10" stroke-linecap="round" stroke-linejoin="round"/>
</svg>
