<svg width="20" height="20" viewBox="0 0 20 20" fill="none" xmlns="http://www.w3.org/2000/svg">
<path d="M17.0467 17.753C16.3128 17.4777 15.7623 17.019 15.3953 16.3767C14.2026 18.3035 11.3584 18.3035 10.1656 16.3767C8.97292 18.3035 6.12873 18.3035 4.93601 16.3767C4.38552 17.2942 3.37629 17.8447 2.36707 17.8447M2.36713 14.2666C3.4681 14.2666 4.47733 13.7161 4.93607 12.7986C6.1288 14.7253 8.97298 14.7253 10.1657 12.7986C11.3584 14.7253 14.2026 14.7253 15.3953 12.7986C15.6706 13.3491 16.2211 13.8078 16.7716 13.9913M3.92678 13.7161C4.11027 13.2573 3.83503 13.2573 3.83503 12.5233C3.74328 11.6976 4.56901 10.7801 5.303 10.5049C6.03698 10.2296 7.04621 10.3214 7.68845 10.4131C8.33068 10.4131 10.1656 10.5966 10.8079 10.5966C11.3584 10.5966 11.7254 10.3214 12.1841 9.7709C12.6428 9.22041 12.7346 8.48643 12.8263 8.11943C12.9181 7.75244 13.1933 7.38545 13.1933 7.38545C13.1933 7.38545 12.8263 6.83496 12.7346 6.37622C12.5511 5.55049 13.2851 5 13.2851 5C13.6521 5.1835 14.0191 5.91748 14.0191 5.91748C14.2943 6.19272 14.2026 6.74321 14.6613 6.92671C15.12 7.1102 15.487 7.84419 15.7623 8.02768C16.1293 8.30293 17.7807 8.11943 17.9642 8.57817C18.1477 9.03691 17.5972 9.31216 16.955 9.7709C16.3128 10.2296 15.487 9.67915 15.0283 10.0461C14.5695 10.4131 14.4778 12.7068 14.4778 13.1656M12.0923 9.86263C12.0923 9.86263 12.4593 10.6884 13.1015 10.9636C13.652 11.2389 14.5695 11.3306 14.5695 11.3306M4.93594 10.5049C4.93594 10.5049 3.46797 9.67913 2.91748 9.03689C2.1835 8.21116 2 7.29368 2 6.92669" stroke="#414142" stroke-width="1.3" stroke-miterlimit="10" stroke-linecap="round" stroke-linejoin="round"/>
</svg>
