<svg width="20" height="20" viewBox="0 0 20 20" fill="none" xmlns="http://www.w3.org/2000/svg">
<path d="M2 16.7C3.23158 16.7 3.23158 18 4.55789 18C5.78947 18 5.78947 16.7 7.11579 16.7C8.34737 16.7 8.34737 18 9.67368 18C10.9053 18 10.9053 16.7 12.2316 16.7C13.4632 16.7 13.4632 18 14.7895 18C16.0211 18 16.0211 16.7 17.3474 16.7M9.29474 5.5V4.1C9.29474 2.9 8.44211 2 7.30526 2C6.16842 2 5.31579 2.9 5.31579 4.1V15.2M17.1579 5.5V4.1C17.1579 2.9 16.3053 2 15.1684 2C14.0316 2 13.1789 2.9 13.1789 4.1V15.2M6 8L13 8M6 12L13 12" stroke="#414142" stroke-width="1.3" stroke-miterlimit="10" stroke-linecap="round" stroke-linejoin="round"/>
</svg>
