<svg width="20" height="20" viewBox="0 0 20 20" fill="none" xmlns="http://www.w3.org/2000/svg">
<path d="M13.6316 6.17834L16.6195 10.051H10.5369M10.8571 5.87261L9.14969 7.80892M6.26846 14.9427C3.9208 14.9427 2 13.1083 2 10.8662C2 8.6242 3.9208 6.78981 6.26846 6.78981C8.61611 6.78981 10.5369 8.6242 10.5369 10.8662C10.5369 12.7006 8.70738 14.2293 7 14.7388H17.9L14.6987 10.3567M13.2047 15.1465V18H11.3906V15.1465M6.26846 9.84713V18M6.26846 13.7197L7.97585 11.8853M4.56107 11.0701L6.26845 12.5987M12.1376 2L9.14968 5.87261H15.0188L13.098 3.22293L12.1376 2Z" stroke="#414142" stroke-width="1.3" stroke-miterlimit="10" stroke-linecap="round" stroke-linejoin="round"/>
</svg>
