<svg width="20" height="20" viewBox="0 0 20 20" fill="none" xmlns="http://www.w3.org/2000/svg">
<path d="M10.0002 18C11.4002 13.1 12.8002 11 17.0002 11C14.2002 15.2 14.2002 18 10.0002 18ZM10.0002 18C8.60016 13.1 7.2 11 3 11C5.8 15.2 5.80016 18 10.0002 18ZM11.4 3.4C11.4 4.2 9.99996 6.2 9.99996 6.2C9.99996 6.2 8.59996 4.2 8.59996 3.4C8.59996 2.6 9.19996 2 9.99996 2C10.8 2 11.4 2.6 11.4 3.4ZM6.50002 5.49997C7.30002 5.49997 9.30002 6.89997 9.30002 6.89997C9.30002 6.89997 7.30002 8.29997 6.50002 8.29997C5.70002 8.29997 5.10002 7.69997 5.10002 6.89997C5.10002 6.09997 5.70002 5.49997 6.50002 5.49997ZM8.59996 10.4C8.59996 9.59999 9.99996 7.59999 9.99996 7.59999C9.99996 7.59999 11.4 9.59999 11.4 10.4C11.4 11.2 10.8 11.8 9.99996 11.8C9.19996 11.8 8.59996 11.1 8.59996 10.4ZM13.5 8.29997C12.7 8.29997 10.7 6.89997 10.7 6.89997C10.7 6.89997 12.7 5.49997 13.5 5.49997C14.3 5.49997 14.9 6.09997 14.9 6.89997C14.9 7.69997 14.2 8.29997 13.5 8.29997Z" stroke="#414142" stroke-width="1.3" stroke-miterlimit="10" stroke-linecap="round" stroke-linejoin="round"/>
</svg>
