<svg width="20" height="20" viewBox="0 0 20 20" fill="none" xmlns="http://www.w3.org/2000/svg">
<path d="M18 9.78946V15.8947C18 17.0526 17.1 18 16 18H4C2.9 18 2 17.0526 2 15.8947V12.7368M17.4999 16.421C17.4999 16.421 13.7999 12.6316 9.69989 12.421C7.09989 12.2105 3.69989 11.7895 2.19989 12.6316M8.80011 12C8.80011 12 11.2001 7.36841 14.7001 7.6842C17.2001 7.99999 17.9001 9.6842 17.9001 9.6842M5.69989 11.8948V6.31581M7.9 7.36842L6.4 2.52632C6.4 2.21053 6.1 2 5.7 2C5.4 2 5.1 2.21053 5 2.52632L3.6 7.36842C3.5 7.57895 3.5 7.78948 3.5 8C3.5 9.26316 4.5 10.2105 5.7 10.2105C6.9 10.2105 7.9 9.1579 7.9 8C8 7.78948 7.9 7.57895 7.9 7.36842Z" stroke="#414142" stroke-width="1.3" stroke-miterlimit="10" stroke-linecap="round" stroke-linejoin="round"/>
</svg>
