<svg width="20" height="20" viewBox="0 0 20 20" fill="none" xmlns="http://www.w3.org/2000/svg">
<path d="M18.5266 18.1732C17.7064 17.8656 17.0912 17.3529 16.6811 16.6352C15.3482 18.7883 12.1698 18.7883 10.8369 16.6352C9.50407 18.7883 6.32566 18.7883 4.99278 16.6352C4.3776 17.6605 3.24978 18.2757 2.12196 18.2757M2.12196 14.277C3.35231 14.277 4.48013 13.6619 4.99278 12.6366C6.32566 14.7897 9.50407 14.7897 10.8369 12.6366C12.1698 14.7897 15.3482 14.7897 16.6811 12.6366C16.9887 13.2518 17.6039 13.7644 18.2191 13.9695M11.9648 13.5593L14.6305 10.8936C14.9381 10.586 14.9381 10.0733 14.6305 9.76575L11.4521 6.99746L7.1459 4.53676L2.83966 5.76711C2.22449 5.86964 1.9169 6.48481 2.01943 7.09999C2.22449 7.71517 2.83966 8.02275 3.35231 7.92023L6.63325 6.99746L9.6066 8.74046L5.50543 13.0467M16.9571 3.7217C17.9175 4.6832 17.9166 6.24122 16.9551 7.20163C15.9936 8.16204 14.4356 8.16116 13.4752 7.19966C12.5148 6.23816 12.5157 4.68014 13.4772 3.71973C14.4387 2.75932 15.9967 2.7602 16.9571 3.7217Z" stroke="#414142" stroke-width="1.3" stroke-miterlimit="10" stroke-linecap="round" stroke-linejoin="round"/>
</svg>
