<svg width="20" height="20" viewBox="0 0 20 20" fill="none" xmlns="http://www.w3.org/2000/svg">
<path d="M14.0629 15.8901L10.6283 13.6597C10.4608 13.5535 10.2932 13.5535 10.1257 13.6597L7.52882 14.828C7.36129 14.9342 7.10998 14.828 7.02621 14.5094L6.18851 11.2168L8.19898 10.4733C8.36652 10.3671 8.53406 10.2609 8.53406 10.0485L9.53929 7.6056C9.70683 7.18076 9.62306 6.54348 9.20422 6.33106C8.86914 6.01242 8.45029 6.22485 8.28275 6.6497L7.61259 8.34909C7.52882 8.4553 7.36129 8.66772 7.27752 8.66772L5.76966 9.19878L3.42411 11.2168L4.76443 16.6336C5.01574 17.6957 5.85343 18.2268 6.69113 17.9082L10.5445 16.315C10.7121 16.2088 10.8796 16.315 11.0471 16.315L13.3089 17.802M9.62304 7.60561L14.2304 13.3411L16.6597 12.5976L18 15.1467M9 6L6.11628 4.47619L5 2M10 3C9.625 3 8 3 8 3M17 9C16.2821 9 13 9 13 9M4.82353 7.5C4.82353 8.32843 4.19146 9 3.41176 9C2.63207 9 2 8.32843 2 7.5C2 6.67157 2.63207 6 3.41176 6C4.19146 6 4.82353 6.67157 4.82353 7.5Z" stroke="#414142" stroke-width="1.3" stroke-miterlimit="10" stroke-linecap="round" stroke-linejoin="round"/>
</svg>
