<svg width="20" height="20" viewBox="0 0 20 20" fill="none" xmlns="http://www.w3.org/2000/svg">
<path d="M8.17016 5.94181C7.97788 5.55724 7.49717 5.36496 7.1126 5.26881C7.01646 5.26881 7.01646 5.26881 6.92031 5.26881C6.05504 5.26881 5.38204 5.94181 5.2859 6.71094C5.18976 7.38394 5.09362 7.57622 4.90133 7.76851C4.42062 8.05693 4.03605 8.92221 4.03605 9.5952V9.97977C3.93991 10.4605 4.03605 10.9412 4.32448 11.2296C4.61291 11.6142 4.99747 11.8065 5.47818 11.8065L6.15118 11.9988C6.24732 11.9988 6.34346 11.9988 6.4396 11.9988M13.0734 6.61482L15.1886 17.9596M13.5541 10.2682C13.5541 10.2682 10.2853 10.1721 9.22776 9.59522M14.2272 8.53766C13.9387 8.24924 13.6503 8.15309 13.1696 8.15309H11.3429C11.1506 8.15309 10.9583 8.05695 10.7661 7.96081C10.2853 7.38396 9.99692 6.13411 8.93936 6.13411H8.84322C8.07408 6.13411 7.49723 6.71096 7.40109 7.38396L6.72809 11.9988C6.72809 12.3833 6.34352 14.4985 6.34352 14.4985L5.67053 16.3252C5.3821 16.8059 5.09368 17.6712 5.57439 17.9596C6.0551 18.248 6.82423 17.6712 7.11266 17.3827L8.26636 15.2676C8.26636 15.2676 8.45865 13.2486 8.55479 13.1525L9.99692 14.883L10.8622 17.2866C10.9583 17.6712 11.2468 17.9596 12.0159 17.9596C12.4005 17.9596 12.5928 17.3827 12.4966 16.9982L11.9198 13.4409C11.8236 13.1525 9.61235 11.2296 9.61235 11.2296C9.61235 11.2296 9.99692 10.5566 10.0931 10.1721M12.1121 3.63441C12.1121 4.53708 11.3804 5.26883 10.4777 5.26883C9.57503 5.26883 8.84328 4.53708 8.84328 3.63441C8.84328 2.73175 9.57503 2 10.4777 2C11.3804 2 12.1121 2.73175 12.1121 3.63441Z" stroke="#414142" stroke-width="1.3" stroke-miterlimit="10" stroke-linecap="round" stroke-linejoin="round"/>
</svg>
