<svg width="20" height="20" viewBox="0 0 20 20" fill="none" xmlns="http://www.w3.org/2000/svg">
<path d="M18 16.8962C17.2727 16.5849 16.6494 16.066 16.2338 15.3396C14.987 17.5189 11.7662 17.5189 10.5195 15.3396C9.27273 17.5189 6.05195 17.5189 4.80519 15.3396C4.18182 16.3774 3.14286 17 2 17M18 12.2264C17.2727 11.9151 16.6494 11.3962 16.2338 10.6698C14.987 12.8491 11.7662 12.8491 10.5195 10.6698C9.27273 12.8491 6.05195 12.8491 4.80519 10.6698C4.18182 11.7075 3.14286 12.3302 2 12.3302M18 7.5566C17.2727 7.24528 16.6494 6.72642 16.2338 6C14.987 8.17925 11.7662 8.17925 10.5195 6C9.27273 8.17925 6.05195 8.17925 4.80519 6C4.18182 7.03774 3.14286 7.66038 2 7.66038" stroke="#414142" stroke-width="1.3" stroke-miterlimit="10" stroke-linecap="round" stroke-linejoin="round"/>
</svg>
