<svg width="20" height="20" viewBox="0 0 20 20" fill="none" xmlns="http://www.w3.org/2000/svg">
<path d="M15.5509 9.69999C15.5509 9.69999 15.438 9.69999 15.438 9.81291C15.0993 9.92584 14.6476 10.1517 14.1959 10.7163M2 6.31225V17.7176L6.85576 16.0238L12.8408 17.6047L18.0353 15.685V5.52178L12.8408 7.21565L9.56595 6.0864M9.22717 13.7653C9.00132 13.7653 8.8884 13.6523 8.66255 13.6523C8.32378 13.5394 7.985 13.4265 7.5333 13.2007L9.22717 13.7653ZM11.4857 13.7653C11.5986 13.7653 11.8244 13.6523 11.9374 13.5394C12.502 13.2007 12.8408 12.749 13.0666 12.2973L11.4857 13.7653ZM5.61359 12.0714C4.71019 9.02244 2 8.3449 2 5.63471C2 3.71499 3.69387 2.02112 5.61359 2.02112C7.5333 2.02112 9.22717 3.71499 9.22717 5.63471C9.22717 8.3449 6.51698 9.02244 5.61359 12.0714ZM5.6136 4.39253C4.93605 4.39253 4.37143 4.95715 4.37143 5.6347C4.37143 6.31225 4.93605 6.87687 5.6136 6.87687C6.29115 6.76395 6.85577 6.31225 6.85577 5.6347C6.85577 4.95715 6.29115 4.39253 5.6136 4.39253Z" stroke="#414142" stroke-width="1.3" stroke-miterlimit="10" stroke-linecap="round" stroke-linejoin="round"/>
</svg>
