<svg width="20" height="20" viewBox="0 0 20 20" fill="none" xmlns="http://www.w3.org/2000/svg">
<path d="M13.8999 5.87579C13.3999 6.07455 12.8999 6.17392 12.2999 6.17392C11.3999 6.17392 10.5999 5.87579 9.8999 5.47827M11.8716 15.6927L10.1999 18H14.4999L12.7282 15.6927M9.01731 7.82815L7 11.4472H9M15.5624 7.82815L17.7001 11.4472H15.7001M3.9 9.25467L3.8999 15.3168C3.8999 16.3106 4.6999 17.1056 5.6999 17.1056C8.2999 17.1056 7.7999 13.2298 5.6999 13.2298L5.8999 14.2236M3.9 9.25467C4.39706 9.25467 4.8 8.85423 4.8 8.36026C4.8 7.86629 4.39706 7.46585 3.9 7.46585C3.40294 7.46585 3 7.86629 3 8.36026C3 8.85423 3.40294 9.25467 3.9 9.25467ZM3.8999 7.36648V4.08698M15.6999 9.15528C15.6999 13.1304 12.2999 16.1118 12.2999 16.1118C12.2999 16.1118 8.8999 13.1304 8.8999 9.15528C8.8999 7.76398 9.2999 6.47205 9.7999 5.37888C10.7999 3.29193 12.1999 2 12.1999 2C12.1999 2 13.5999 3.3913 14.5999 5.37888C15.2999 6.57143 15.6999 7.86335 15.6999 9.15528Z" stroke="#414142" stroke-width="1.3" stroke-miterlimit="10" stroke-linecap="round" stroke-linejoin="round"/>
</svg>
