<svg width="20" height="20" viewBox="0 0 20 20" fill="none" xmlns="http://www.w3.org/2000/svg">
<path d="M17.2537 17.9149C16.5678 17.6596 16.0534 17.234 15.7105 16.6383C14.5959 18.4255 11.938 18.4255 10.8235 16.6383C9.70889 18.4255 7.05105 18.4255 5.93647 16.6383C5.42205 17.4894 4.47895 18 3.53584 18M8.68007 17.3191V14.766H3.10717M8.33712 14.4255V11.3617C8.33712 11.1915 8.25138 11.0213 8.16564 10.8511L6.10796 9.82979C5.93649 9.65957 5.93649 9.40426 6.10796 9.23404L8.07991 7.2766L9.62317 8.80851C9.7089 8.89362 9.88038 8.97872 9.96612 8.97872H12.1953C12.624 8.97872 12.9669 8.6383 12.9669 8.21277C12.9669 7.78723 12.624 7.44681 12.1953 7.44681H10.7377C10.5663 7.44681 10.4805 7.3617 10.3091 7.2766L9.28022 6.17021L6.70812 4.7234L3.45012 7.95745C2.84996 8.55319 2.84996 9.57447 3.45012 10.1702L6.45091 12.2128C6.62238 12.2979 6.62238 12.5532 6.62238 12.7234V14.5106M10.7377 3.44681C10.7377 4.24586 10.0852 4.89362 9.28022 4.89362C8.47525 4.89362 7.82269 4.24586 7.82269 3.44681C7.82269 2.64776 8.47525 2 9.28022 2C10.0852 2 10.7377 2.64776 10.7377 3.44681Z" stroke="#414142" stroke-width="1.4173" stroke-miterlimit="10" stroke-linecap="round" stroke-linejoin="round"/>
</svg>
