<svg width="20" height="20" viewBox="0 0 20 20" fill="none" xmlns="http://www.w3.org/2000/svg">
<path d="M7.8839 2.00364H18.0001M7.78069 2.00364C7.78069 2.00364 5.80074 1.85217 5.50006 3.50365C4.68077 8.00365 6.03232 14.1484 5.00006 15.5036M16.0001 2.00365C16.0001 2.00365 13.9001 2.00365 13.5001 3.00364C12.5001 5.50364 14.1614 13.9938 13.0001 15.5036M7.40002 5.3916V9.86372M9.22589 13.2517V14.6069M11.084 7.42439L11.1872 12.5741M2 18.0036C2.5 17.648 3 17.0036 4 17.0036C5 17.0036 6.5 18.0036 8 18.0036C9.5 18.0036 10.6875 17.0036 12 17.0036C13.3125 17.0036 14 18.0036 15 18.0036C16 18.0036 17.0001 17.0036 18.0001 17.0036M2.54846 13.6582L2.75491 14.3358M16.3162 13.1162L16.1097 13.7938" stroke="#414142" stroke-width="1.3" stroke-miterlimit="10" stroke-linecap="round" stroke-linejoin="round"/>
</svg>
