<svg width="20" height="20" viewBox="0 0 20 20" fill="none" xmlns="http://www.w3.org/2000/svg">
<path d="M17.7976 14.7299C17.7976 14.7299 16.3799 14.2628 14.6583 14.2628C13.3419 14.2628 11.7216 15.0803 10.4052 15.1971C8.48113 15.3139 7.671 13.2117 5.13935 14.0292C4.1267 14.3796 2.81024 15.1971 2.60771 15.1971M17.8988 18C17.8988 18 16.6837 17.4161 15.1647 17.1825C13.8482 16.9489 11.6204 17.6496 10.4052 17.7664C8.48113 17.8832 7.16467 16.5985 4.63303 17.2993C3.62037 17.6496 2.81024 17.7664 2.60771 17.6496M2 12.6277L6.55696 2L9.59494 8.65693L11.9241 5.15328L18 11.3431M13.2406 2.58395H14.3545M16.5823 5.38686H15.4684M4.83548 6.55473L5.9494 8.07298L8.37978 6.43794" stroke="#414142" stroke-width="1.3" stroke-miterlimit="10" stroke-linecap="round" stroke-linejoin="round"/>
</svg>
