<svg width="20" height="20" viewBox="0 0 20 20" fill="none" xmlns="http://www.w3.org/2000/svg">
<path d="M11.2 3.7L16.7 9.2C16.7 9.2 14.2 14.1 9.2 16.7L3.6 11.1C6.2 6.1 11.1 3.6 11.1 3.6M12.9 5.4C10.1 7 6.2 11.4 5.4 12.9M14.7 7.1C13.1 9.9 8.7 13.8 7.2 14.6M10.9 3.7V2M18.3 8.9L16.6 9.1M3.6 11L2.1 11.1M9 18.3L9.1 16.6M7.8 5.9L6.5 2.9M5.6 8.1L2.8 6.6M17.5 13.9L14.6 12.7M13.9 17.6L12.4 14.8M18.4 10.2C18.4 14.7287 14.7287 18.4 10.2 18.4C5.67126 18.4 2 14.7287 2 10.2C2 5.67126 5.67126 2 10.2 2C14.7287 2 18.4 5.67126 18.4 10.2Z" stroke="#414142" stroke-width="1.3" stroke-miterlimit="10" stroke-linecap="round" stroke-linejoin="round"/>
</svg>
