<svg width="20" height="20" viewBox="0 0 20 20" fill="none" xmlns="http://www.w3.org/2000/svg">
<path d="M3 6L13.4914 13.3109M13.6262 2.25892C11.5862 1.11384 8.08901 3.93249 5.5633 7.45581C3.03758 10.9791 1.19187 16.2641 2.35758 16.9688C2.8433 17.233 3.13473 17.4092 3.62044 17.6734C4.98044 18.4662 9.74044 14.1501 11.8776 11.1553C14.1119 7.89622 15.569 3.404 13.6262 2.25892ZM10.0319 10.4506C8.28328 12.6527 5.07757 15.6475 4.39757 15.2952C3.71757 14.9429 5.56328 10.803 6.72899 8.86513C7.70042 7.36773 8.86614 6.13456 9.83757 5.34182C9.83757 5.25374 11.9747 6.66306 12.2661 6.83923C12.2661 6.83923 10.809 9.48172 10.0319 10.4506ZM13.5886 14.8083L15.5314 16.3057C16.0171 16.658 16.7943 16.658 17.1829 16.1295L17.3771 15.9534C17.7657 15.513 17.7657 14.8083 17.1829 14.456L15.24 12.9585L13.4914 13.1347L13.5886 14.8083Z" stroke="#414142" stroke-width="1.3" stroke-miterlimit="10" stroke-linecap="round" stroke-linejoin="round"/>
</svg>
