<svg width="20" height="20" viewBox="0 0 20 20" fill="none" xmlns="http://www.w3.org/2000/svg">
<path d="M11.1815 14.3629V10.937C11.1815 10.7881 11.107 10.6391 11.0326 10.4902L9.24515 8.85172C9.0962 8.70277 9.0962 8.47935 9.24515 8.3304L10.8836 6.61747L12.2242 7.95802C12.2986 8.0325 12.4476 8.10697 12.5965 8.10697H14.5329M14.5329 8.10697C14.9053 8.10697 15.2032 7.80907 15.2032 7.43669C15.2032 7.06432 14.9053 6.76642 14.5329 6.76642H13.2668C13.1179 6.76642 12.9689 6.69194 12.8944 6.61747L11.9263 5.64929L9.76648 4.38321L6.93642 7.21327C6.41509 7.73459 6.41509 8.6283 6.93642 9.14962L9.54305 11.6818C9.61753 11.7563 9.692 11.9052 9.692 12.0542V14.3629M14.5329 8.10697L12.2987 14.9587M3 15L17 15M13.1922 3.26608C13.1922 3.96531 12.6254 4.53216 11.9261 4.53216C11.2269 4.53216 10.66 3.96531 10.66 3.26608C10.66 2.56684 11.2269 2 11.9261 2C12.6254 2 13.1922 2.56684 13.1922 3.26608ZM11.1815 15.7779L10.7347 17.044C10.5857 17.4164 10.8092 17.8632 11.1815 18.0122H11.3305C11.7029 18.1611 12.1497 17.9377 12.2987 17.5653L12.671 16.2993L12.1497 15.3311L11.1815 15.7779Z" stroke="#414142" stroke-width="1.3" stroke-miterlimit="10" stroke-linecap="round" stroke-linejoin="round"/>
</svg>
