<svg width="20" height="20" viewBox="0 0 20 20" fill="none" xmlns="http://www.w3.org/2000/svg">
<path d="M12.6001 2V7.89999M9.8 12.6H8.9M12.4001 14.9H11.6001M6.59982 15.5H5.69983M16.8 4.8H12.6V2.7H16.8L16.1 3.8L16.8 4.8ZM12.5 18H5.1C3.9 18 3 17.3 3 16.5C3 16.5 4 8.50001 4 8.40001L5.6 8.00002V9.30001H7.49999V8.00002H9.99999V9.30001H11.7V8.00002C12.3 8.00002 13.2 8.40001 13.2 8.40001L14.6 16.5C14.7 17.3 13.7 18 12.5 18Z" stroke="#414142" stroke-width="1.3" stroke-miterlimit="10" stroke-linecap="round" stroke-linejoin="round"/>
</svg>
