<svg width="20" height="20" viewBox="0 0 20 20" fill="none" xmlns="http://www.w3.org/2000/svg">
<path d="M10.2588 9.30588V16.5059M2 4.96471L18.5176 2M11.6353 4.54118C11.6353 5.28235 11 5.91765 10.2588 5.91765C9.51765 5.91765 8.88235 5.28235 8.88235 4.54118C8.88235 3.8 9.51765 3.16471 10.2588 3.16471M10.2588 7.4V6.02353M5.91764 14.6H9.30588M11.2118 14.6H14.4941M15.4471 7.4L18.3059 12.1647L16.4 18.4118H4.01177L2.10589 12.1647L4.96471 7.4H15.4471ZM5.49412 16.5059L4.22354 12.3765L6.12942 9.30588H14.3882L16.2941 12.3765L15.0235 16.5059H5.49412Z" stroke="#414142" stroke-width="1.3" stroke-miterlimit="10" stroke-linecap="round" stroke-linejoin="round"/>
</svg>
