<svg width="20" height="20" viewBox="0 0 20 20" xmlns="http://www.w3.org/2000/svg" stroke="currentColor" stroke-linecap="round" stroke-linejoin="round" fill="none"><path d="M3.895 10.59H2.853c-.474 0-.853-.404-.853-.909C2 5.436 5.505 2 9.863 2c4.358 0 7.863 3.436 7.863 7.681 0 .505-.379.91-.852.91h-1.137m0-.405c0-3.335-2.653-6.064-5.874-6.064-3.22 0-5.874 2.73-5.874 6.064v6.772c0 .505.38 1.01.948 1.01h9.947c.474 0 .948-.404.948-1.01v-6.772h-.095zm-8.053 7.782h4.169v-3.941c0-1.213-.853-2.122-1.99-2.122h-.095c-1.136 0-1.99.91-1.99 2.122v3.941h-.094zM8.821 6.952h1.895c.663 0 1.137.506 1.137 1.213v.101c0 .708-.474 1.213-1.137 1.213H8.82c-.568 0-1.137-.607-1.137-1.213v-.101c0-.707.569-1.213 1.137-1.213z" stroke-width="1.3" stroke-miterlimit="10"/></svg>