<svg width="20" height="20" viewBox="0 0 20 20" xmlns="http://www.w3.org/2000/svg" stroke="currentColor" stroke-linecap="round" stroke-linejoin="round" fill="none"><path d="M10 18c1.4-4.9 2.8-7 7-7-2.8 4.2-2.8 7-7 7zm0 0c-1.4-4.9-2.8-7-7-7 2.8 4.2 2.8 7 7 7zm1.4-14.6c0 .8-1.4 2.8-1.4 2.8s-1.4-2-1.4-2.8c0-.8.6-1.4 1.4-1.4.8 0 1.4.6 1.4 1.4zM6.5 5.5c.8 0 2.8 1.4 2.8 1.4s-2 1.4-2.8 1.4c-.8 0-1.4-.6-1.4-1.4 0-.8.6-1.4 1.4-1.4zm2.1 4.9c0-.8 1.4-2.8 1.4-2.8s1.4 2 1.4 2.8c0 .8-.6 1.4-1.4 1.4-.8 0-1.4-.7-1.4-1.4zm4.9-2.1c-.8 0-2.8-1.4-2.8-1.4s2-1.4 2.8-1.4c.8 0 1.4.6 1.4 1.4 0 .8-.7 1.4-1.4 1.4z" stroke-width="1.3" stroke-miterlimit="10"/></svg>