<svg width="20" height="20" viewBox="0 0 20 20" xmlns="http://www.w3.org/2000/svg" stroke="currentColor" stroke-linecap="round" stroke-linejoin="round" fill="none"><path d="M13.9 5.876c-.5.199-1 .298-1.6.298-.9 0-1.7-.298-2.4-.696m1.972 10.215L10.2 18h4.3l-1.772-2.307m-3.71-7.865L7 11.448h2m6.562-3.62 2.138 3.62h-2M3.9 9.254v6.062c0 .994.8 1.789 1.8 1.789 2.6 0 2.1-3.876 0-3.876l.2.994m-2-4.97c.497 0 .9-.4.9-.894a.897.897 0 0 0-.9-.894c-.497 0-.9.4-.9.894s.403.895.9.895zm0-1.888V4.087m11.8 5.068c0 3.975-3.4 6.957-3.4 6.957S8.9 13.13 8.9 9.155c0-1.391.4-2.683.9-3.776C10.8 3.292 12.2 2 12.2 2s1.4 1.391 2.4 3.379c.7 1.192 1.1 2.484 1.1 3.776z" stroke-width="1.3" stroke-miterlimit="10"/></svg>