<svg width="20" height="20" viewBox="0 0 20 20" xmlns="http://www.w3.org/2000/svg" stroke="currentColor" stroke-linecap="round" stroke-linejoin="round" fill="none"><path d="M11.181 14.363v-3.426c0-.149-.074-.298-.148-.447L9.245 8.852a.36.36 0 0 1 0-.522l1.639-1.713 1.34 1.341a.569.569 0 0 0 .373.149h1.936m0 0c.372 0 .67-.298.67-.67a.667.667 0 0 0-.67-.67h-1.266a.57.57 0 0 1-.373-.15l-.968-.968-2.16-1.266-2.83 2.83a1.394 1.394 0 0 0 0 1.937l2.607 2.532a.569.569 0 0 1 .149.372v2.309m4.84-6.256L12.3 14.959M3 15h14M13.192 3.266a1.266 1.266 0 1 1-2.532 0 1.266 1.266 0 0 1 2.532 0zm-2.01 12.512-.447 1.266c-.15.372.074.82.447.968h.149c.372.15.819-.074.968-.447l.372-1.266-.521-.968-.969.447z" stroke-width="1.3" stroke-miterlimit="10"/></svg>