<svg width="20" height="20" viewBox="0 0 20 20" xmlns="http://www.w3.org/2000/svg" stroke="currentColor" stroke-linecap="round" stroke-linejoin="round" fill="none"><path d="M17.254 17.915c-.686-.255-1.2-.681-1.544-1.277-1.114 1.787-3.772 1.787-4.887 0-1.114 1.787-3.772 1.787-4.887 0A2.846 2.846 0 0 1 3.536 18m5.144-.68v-2.554H3.107m5.23-.34v-3.064c0-.17-.086-.34-.171-.51L6.108 9.83a.41.41 0 0 1 0-.596L8.08 7.277l1.543 1.532c.086.085.257.17.343.17h2.23a.766.766 0 1 0 0-1.532h-1.458c-.172 0-.258-.085-.429-.17L9.28 6.17 6.708 4.723 3.45 7.957c-.6.596-.6 1.617 0 2.213l3 2.043c.172.085.172.34.172.51v1.788m4.116-11.064c0 .799-.653 1.447-1.458 1.447a1.452 1.452 0 0 1-1.457-1.447c0-.8.652-1.447 1.457-1.447s1.458.648 1.458 1.447z" stroke-miterlimit="10"/></svg>