<svg width="20" height="20" viewBox="0 0 20 20" xmlns="http://www.w3.org/2000/svg" stroke-linecap="round" stroke-linejoin="round" stroke="currentColor" fill="none"><path d="M17.798 14.73s-1.418-.467-3.14-.467c-1.316 0-2.936.817-4.253.934-1.924.117-2.734-1.985-5.266-1.168-1.012.35-2.329 1.168-2.531 1.168M17.898 18s-1.214-.584-2.733-.817c-1.317-.234-3.545.467-4.76.583-1.924.117-3.24-1.167-5.772-.467-1.013.35-1.823.467-2.025.35M2 12.629 6.557 2l3.038 6.657 2.33-3.504L18 11.343m-4.76-8.76h1.114m2.228 2.804h-1.114M4.835 6.555 5.95 8.073l2.43-1.635" stroke-width="1.3" stroke-miterlimit="10"/></svg>