<svg width="20" height="20" viewBox="0 0 20 20" xmlns="http://www.w3.org/2000/svg" stroke-linecap="round" stroke-linejoin="round" stroke="currentColor" fill="none"><path d="M11.098 9.457a.65.65 0 0 0-.53 1.187l.53-1.187zm1.311 1.298-.265.593.033.015.035.01.197-.618zm-.105 1.51.113.64.043-.008.042-.014-.198-.619zM1.89 13.434a.65.65 0 1 0 .225 1.28l-.225-1.28zm9.205-4.078a.65.65 0 0 0-.185 1.286l.185-1.286zm5.836 1.498.232-.607-.067-.026-.072-.01-.093.643zm.42 2.415.345.552.018-.011.017-.012-.38-.528zM9.438 17.45a.65.65 0 1 0 .689 1.102l-.69-1.102zM9.57 7.132l-.65.022.65-.022zM8.099 2.503l-.505.41.505-.41zm-3.154 4.63.65.023-.65-.024zm0 .603h.65-.65zm1.768 3.723a.65.65 0 1 0 1.3 0h-1.3zm1.3-5.333a.65.65 0 1 0-1.3 0h1.3zm-5.085 4.93a.65.65 0 1 0 1.3 0h-1.3zm1.3-1.106a.65.65 0 1 0-1.3 0h1.3zm.124-3.185a.65.65 0 1 0 1.187-.53l-1.187.53zm-.353-2.25.45-.469-.45.47zm-.841 0-.45-.469.45.47zM2.002 8l-.65-.017.65.017zm3.494 1.39a.65.65 0 1 0-1.102-.691l1.102.69zm2.37 7.909a.65.65 0 0 0 .466-1.214l-.465 1.214zm-.818-1.614.576-.3a.65.65 0 0 0-1.134-.033l.558.333zm-2.313-.1.584-.285a.65.65 0 0 0-.963-.243l.379.528zm-1.472.557a.65.65 0 1 0 0 1.3v-1.3zm8.692-.713a.65.65 0 0 0 .699-1.096l-.7 1.095zm-.492-1.454.576-.301a.65.65 0 0 0-1.169.035l.593.266zm-1.073.299a.65.65 0 1 0 .465 1.214l-.465-1.214zm.177-3.63 1.577.704.53-1.187-1.576-.704-.53 1.187zm1.645.73a.067.067 0 0 1 .037.03c.014.02.036.068.036.156h1.3c0-.637-.35-1.224-.978-1.425l-.395 1.239zm.073.186c0-.039.01-.059.01-.057a.181.181 0 0 1-.03.04.414.414 0 0 1-.158.102l.395 1.238c.267-.085.519-.248.71-.45.184-.197.373-.5.373-.873h-1.3zm-.093.064L1.889 13.435l.225 1.28 10.303-1.81-.225-1.281zm-1.283-.98 5.928.855.186-1.287-5.929-.855-.185 1.286zm5.789.818c.384.148.6.407.647.633l1.273-.266c-.164-.78-.79-1.325-1.456-1.58l-.464 1.213zm.647.633c.031.15-.062.424-.374.647l.759 1.056c.529-.38 1.067-1.112.887-1.969l-1.272.266zm-.339.624-7.57 4.73.69 1.102 7.569-4.73-.689-1.102zM10.221 7.11c-.035-1.041-.326-2.145-.648-3.038-.314-.871-.696-1.64-.969-1.978l-1.01.818c.13.16.452.757.757 1.602.297.824.542 1.785.57 2.64l1.3-.044zM8.604 2.094c-.18-.222-.568-.744-1.24-.744v1.3a.062.062 0 0 1-.02-.004c-.005-.002.002 0 .022.015.02.017.05.044.09.088.04.044.084.096.138.163l1.01-.818zm-1.24-.744c-.666 0-1.04.472-1.258.765l1.043.776c.105-.14.164-.203.204-.233.014-.011.019-.011.014-.01-.006.002-.01.002-.004.002v-1.3zm-1.258.765c-.152.204-.577.931-.971 1.833-.394.903-.799 2.076-.84 3.16l1.3.048c.031-.838.358-1.831.732-2.688.183-.42.37-.792.525-1.076a9.273 9.273 0 0 1 .288-.488.615.615 0 0 1 .007-.01l.002-.003-1.043-.776zm-1.81 4.993c-.01.249 0 .515 0 .628h1.3c0-.188-.01-.358-.001-.58l-1.3-.048zm0 .628c0 1.65 1.413 2.763 2.962 2.763V9.2c-.974 0-1.663-.666-1.663-1.463h-1.3zm2.962 2.763c1.574 0 2.963-1.252 2.963-2.763h-1.3c0 .702-.713 1.463-1.663 1.463v1.3zm2.963-2.763c0-.2.008-.379 0-.626l-1.3.044c.008.224 0 .31 0 .582h1.3zm-2.208 3.723V6.126h-1.3v5.333h1.3zm-3.785-.402V9.95h-1.3v1.107h1.3zM4.945 6.5l.594-.265s0 0 0 0 0 0 0 0v-.001a.884.884 0 0 0-.01-.02 54.421 54.421 0 0 0-.125-.278c-.08-.179-.19-.42-.302-.663-.113-.243-.23-.494-.327-.691a7.818 7.818 0 0 0-.133-.261 2.202 2.202 0 0 0-.062-.108c-.008-.013-.057-.095-.132-.167l-.898.94c-.062-.06-.092-.115-.076-.09l.024.043c.027.05.064.123.11.216.09.183.202.423.313.663a86.391 86.391 0 0 1 .428.942l.002.004s0 0 0 0a.006.006 0 0 1 0 .001l.594-.265zm-.497-2.454c-.115-.11-.384-.382-.87-.382v1.3h-.007a.16.16 0 0 1-.046-.013.185.185 0 0 1-.02-.01c-.01-.006-.014-.01-.006-.003a.547.547 0 0 1 .05.047l.9-.939zm-.87-.382c-.485 0-.754.271-.87.382l.9.94a2.948 2.948 0 0 1 .05-.048c.008-.006.005-.003-.005.003a.185.185 0 0 1-.067.023H3.58v-1.3zm-.87.382c-.067.065-.113.138-.124.154a2.317 2.317 0 0 0-.068.111c-.045.08-.1.18-.158.298-.119.235-.264.55-.407.908-.279.699-.577 1.631-.6 2.466l1.3.034c.016-.599.244-1.358.507-2.018.129-.321.259-.602.361-.806a4.948 4.948 0 0 1 .153-.281c.016-.025-.01.021-.065.073l-.898-.939zM1.353 7.983c-.004.142 0 .283 0 .357h1.3c0-.128-.004-.2 0-.323l-1.3-.034zm0 .357c0 1.19 1.054 2.16 2.227 2.16V9.198c-.51 0-.927-.44-.927-.86h-1.3zM3.58 10.5c.425 0 .808-.105 1.143-.312a2.44 2.44 0 0 0 .774-.799L4.394 8.7c-.12.192-.239.311-.356.384a.837.837 0 0 1-.46.116v1.3zm4.753 5.585c-.321-.123-.537-.373-.708-.7l-1.152.601c.249.478.664 1.033 1.395 1.313l.465-1.214zm-1.842-.733c-.194.324-.357.524-.484.636-.125.11-.164.09-.133.092.034.001-.005.019-.12-.098-.117-.12-.265-.335-.434-.682l-1.168.57c.198.407.418.76.672 1.02.257.263.593.476 1.008.49.412.013.76-.176 1.033-.415.27-.238.515-.566.742-.946l-1.116-.667zm-2.134-.295a2.965 2.965 0 0 0-.434.405c-.141.154-.23.26-.356.393a1.932 1.932 0 0 1-.28.256c-.076.053-.078.031-.023.031v1.3c.318 0 .58-.135.762-.26a3.17 3.17 0 0 0 .486-.434c.124-.13.278-.308.37-.408.115-.126.188-.195.233-.227l-.758-1.056zm8.298-.724a1.765 1.765 0 0 1-.615-.66l-1.152.603c.272.52.673.901 1.068 1.152l.699-1.095zm-1.784-.624c-.11.247-.252.395-.355.478a.834.834 0 0 1-.14.093l.002-.001a.153.153 0 0 0 .005-.002l.004-.002h.002v-.001h.001l.233.607a65.024 65.024 0 0 0 .234.606h.001l.003-.001.006-.003.014-.006.036-.016a2.123 2.123 0 0 0 .417-.264 2.57 2.57 0 0 0 .723-.956l-1.186-.532z"/></svg>