<svg width="20" height="20" viewBox="0 0 20 20" fill="none" xmlns="http://www.w3.org/2000/svg" stroke-linecap="round" stroke-linejoin="round"><path d="M2 16.7c1.232 0 1.232 1.3 2.558 1.3 1.231 0 1.231-1.3 2.558-1.3 1.231 0 1.231 1.3 2.558 1.3 1.231 0 1.231-1.3 2.558-1.3 1.231 0 1.231 1.3 2.558 1.3 1.231 0 1.231-1.3 2.557-1.3M9.295 5.5V4.1c0-1.2-.853-2.1-1.99-2.1s-1.99.9-1.99 2.1v11.1m11.843-9.7V4.1c0-1.2-.853-2.1-1.99-2.1-1.136 0-1.99.9-1.99 2.1v11.1M6 8h7m-7 4h7" stroke="currentColor" stroke-miterlimit="10"/></svg>