<svg width="20" height="20" viewBox="0 0 20 20" xmlns="http://www.w3.org/2000/svg" stroke-linecap="round" stroke-linejoin="round" stroke="currentColor" fill="none"><path d="m13.632 6.178 2.987 3.873h-6.082m.32-4.178L9.15 7.809m-2.882 7.134C3.921 14.943 2 13.108 2 10.866S3.92 6.79 6.268 6.79s4.269 1.834 4.269 4.076c0 1.835-1.83 3.363-3.537 3.873h10.9l-3.201-4.382m-1.494 4.79V18H11.39v-2.854M6.268 9.848V18m0-4.28 1.708-1.835M4.56 11.07l1.708 1.53M12.138 2 9.15 5.873h5.869l-1.921-2.65L12.138 2z" stroke-width="1.3" stroke-miterlimit="10"/></svg>