<svg width="20" height="20" viewBox="0 0 20 20" xmlns="http://www.w3.org/2000/svg" stroke="currentColor" stroke-linecap="round" stroke-linejoin="round" fill="none"><path d="M18.527 18.173c-.82-.307-1.436-.82-1.846-1.538-1.333 2.153-4.511 2.153-5.844 0-1.333 2.153-4.511 2.153-5.844 0a3.398 3.398 0 0 1-2.871 1.64m0-3.998c1.23 0 2.358-.615 2.87-1.64 1.334 2.153 4.512 2.153 5.845 0 1.333 2.153 4.511 2.153 5.844 0a2.795 2.795 0 0 0 1.538 1.332m-6.254-.41 2.665-2.665a.805.805 0 0 0 0-1.128l-3.178-2.769-4.306-2.46-4.306 1.23c-.616.103-.923.718-.82 1.333.204.615.82.923 1.332.82l3.281-.923L9.607 8.74l-4.102 4.307m11.452-9.325A2.46 2.46 0 1 1 13.475 7.2a2.46 2.46 0 0 1 3.482-3.478z" stroke-miterlimit="10"/></svg>