<svg width="20" height="20" viewBox="0 0 20 20" xmlns="http://www.w3.org/2000/svg" stroke-linecap="round" stroke-linejoin="round" stroke="currentColor" fill="none"><path d="M15.55 9.7s-.112 0-.112.113c-.339.113-.79.339-1.242.903M2 6.312v11.406l4.856-1.694 5.985 1.58 5.194-1.919V5.522l-5.194 1.694-3.275-1.13m-.339 7.68c-.226 0-.339-.114-.564-.114-.34-.113-.678-.225-1.13-.451l1.694.564zm2.259 0c.113 0 .338-.114.451-.227a2.92 2.92 0 0 0 1.13-1.242l-1.581 1.468zM5.614 12.07C4.71 9.022 2 8.345 2 5.635 2 3.715 3.694 2.02 5.614 2.02s3.613 1.694 3.613 3.614c0 2.71-2.71 3.387-3.613 6.436zm0-7.678c-.678 0-1.243.564-1.243 1.242 0 .677.565 1.242 1.243 1.242.677-.113 1.242-.565 1.242-1.242 0-.678-.565-1.242-1.242-1.242z" stroke-width="1.3" stroke-miterlimit="10"/></svg>