<svg width="20" height="20" viewBox="0 0 20 20" xmlns="http://www.w3.org/2000/svg" stroke-linecap="round" stroke-linejoin="round" stroke="currentColor" fill="none"><path d="m11.2 3.7 5.5 5.5s-2.5 4.9-7.5 7.5l-5.6-5.6c2.6-5 7.5-7.5 7.5-7.5m1.8 1.8c-2.8 1.6-6.7 6-7.5 7.5m9.3-5.8c-1.6 2.8-6 6.7-7.5 7.5m3.7-10.9V2m7.4 6.9-1.7.2M3.6 11l-1.5.1M9 18.3l.1-1.7M7.8 5.9l-1.3-3m-.9 5.2L2.8 6.6m14.7 7.3-2.9-1.2m-.7 4.9-1.5-2.8m6-4.6a8.2 8.2 0 1 1-16.4 0 8.2 8.2 0 0 1 16.4 0z" stroke-width="1.3" stroke-miterlimit="10"/></svg>