<svg width="20" height="20" viewBox="0 0 20 20" xmlns="http://www.w3.org/2000/svg" stroke="currentColor" stroke-linecap="round" stroke-linejoin="round" fill="none"><path d="M10.259 9.306v7.2M2 4.965 18.518 2m-6.883 2.541c0 .741-.635 1.377-1.376 1.377A1.402 1.402 0 0 1 8.882 4.54c0-.741.636-1.376 1.377-1.376m0 4.235V6.024M5.918 14.6h3.388m1.906 0h3.282m.953-7.2 2.859 4.765-1.906 6.247H4.012l-1.906-6.247L4.965 7.4h10.482zm-9.953 9.106-1.27-4.13 1.905-3.07h8.26l1.905 3.07-1.27 4.13h-9.53z" stroke-miterlimit="10"/></svg>